<svg xmlns="http://www.w3.org/2000/svg" version="1.1" desc="Created with imagetracer.js version 1.2.6" viewBox="0 0 1024 1024" class="svg-canvas" preserveAspectRatio="xMidYMid meet" filter="url(#outer-glow-filter)" style="background: transparent; filter: url(&quot;#outer-glow-filter&quot;);" width="1024px" height="1024px"><defs><filter id="outer-glow-filter" x="-50%" y="-50%" width="200%" height="200%" color-interpolation-filters="sRGB"><feGaussianBlur id="glow-blur" in="SourceAlpha" result="blur" stdDeviation="11"/><feFlood id="glow-flood" result="flood" flood-color="#00ffff" flood-opacity="1"/><feComposite id="glow-composite" in="flood" in2="blur" operator="in" result="glow"/><feMorphology id="outline-morph" in="SourceAlpha" operator="dilate" radius="0" result="outlineBase"/><feFlood id="outline-flood" result="outlineFlood" flood-color="#00ffff" flood-opacity="0"/><feComposite id="outline-composite" in="outlineFlood" in2="outlineBase" operator="in" result="outline"/><feGaussianBlur id="inner-glow-blur" in="SourceAlpha" result="innerGlowBlur" stdDeviation="0"/><feComposite id="inner-glow-composite" in="innerGlowBlur" in2="SourceAlpha" operator="in" result="innerGlowMask"/><feFlood id="inner-glow-flood" result="innerGlowFlood" flood-color="#ffffff" flood-opacity="0"/><feComposite id="inner-glow-final" in="innerGlowFlood" in2="innerGlowMask" operator="in" result="innerGlow"/><feFlood id="inner-fill-flood" result="innerFillFlood" flood-color="#ffffff" flood-opacity="0"/><feComposite id="inner-fill-composite" in="innerFillFlood" in2="SourceAlpha" operator="in" result="innerFill"/><feMerge><feMergeNode id="merge-outline-node" in="outline"/><feMergeNode id="merge-glow-node" in="glow"/><feMergeNode id="merge-source-node" in="SourceGraphic"/><feMergeNode id="merge-inner-fill-node" in="innerFill"/><feMergeNode id="merge-inner-glow-node" in="innerGlow"/></feMerge></filter></defs><path fill="rgb(0,0,0)" stroke="rgb(0,0,0)" stroke-width="0" opacity="0" d="M 0 0 L 1024 0 L 1024 1024 L 0 1024 L 0 0 Z M 820 132 L 816 136 L 817 139 L 822 141 L 824 140 L 825 135 L 820 132 Z M 749 147 L 746 148 L 744 155 L 748 157 L 751 156 L 752 152 L 752 150 L 749 147 Z M 482 152 L 478 154 Q 454 155 437 161 L 433 160 L 432 162 Q 400 169 373 183 L 370 184 L 363 188 L 363 186 L 362 189 Q 332 203 309 224 L 306 224 L 306 226 L 291 239 L 290 240 L 288 243 L 286 244 L 254 280 L 250 283 Q 225 318 207 362 Q 194 393 187 431 Q 189 436 186 435 L 186 437 L 181 484 L 181 486 L 180 501 L 181 505 L 179 510 L 181 517 L 181 519 L 180 536 L 182 541 Q 182 569 188 591 L 187 595 L 189 595 L 188 600 L 190 600 L 196 625 L 194 631 L 196 631 L 197 633 L 198 631 L 203 648 L 200 649 L 204 649 L 218 682 L 217 681 L 216 684 L 218 683 L 235 714 L 235 716 L 236 718 L 237 716 L 242 724 L 240 724 Q 239 727 243 726 L 251 738 L 252 741 L 256 744 L 258 746 L 267 758 L 269 759 L 295 787 L 296 789 L 304 795 L 306 796 L 308 800 L 310 799 L 314 802 Q 318 804 315 806 L 319 806 L 364 836 L 379 843 L 380 845 L 382 844 L 386 847 L 385 847 L 385 848 L 388 847 L 399 851 L 401 854 L 404 853 L 404 855 L 406 854 L 413 857 L 415 859 L 417 858 L 418 860 L 420 859 Q 439 866 463 869 L 464 871 L 468 870 L 471 871 L 501 874 L 544 873 L 548 873 L 560 874 L 560 872 L 567 873 L 567 871 L 584 869 L 584 871 Q 587 872 585 868 L 607 864 L 609 864 L 644 850 Q 650 846 648 834 L 648 832 L 649 830 Q 648 806 639 790 L 639 788 L 637 787 L 625 770 L 627 769 L 625 768 L 620 761 L 616 762 L 619 764 L 615 766 L 614 764 L 613 767 Q 578 784 528 785 L 523 784 L 521 785 L 518 784 L 512 785 L 510 785 L 508 784 L 499 785 L 496 784 L 489 783 Q 481 785 482 781 L 480 782 Q 454 778 435 769 L 395 746 L 392 743 L 391 743 Q 386 741 388 738 L 386 739 L 380 735 L 382 734 L 379 733 Q 374 731 377 730 L 374 728 L 371 726 L 369 724 Q 364 722 367 720 L 366 719 L 363 719 L 361 717 L 348 700 L 347 697 L 346 696 L 341 691 L 342 689 L 341 689 L 336 683 L 336 681 L 335 680 L 326 666 L 328 665 L 325 664 L 315 643 L 316 641 L 314 640 L 304 613 L 302 602 L 302 600 L 298 589 L 299 585 L 297 584 L 293 563 L 292 546 L 292 544 Q 288 517 290 485 L 290 483 Q 297 375 350 314 L 361 304 L 362 302 L 364 300 L 367 295 L 373 291 L 376 289 Q 378 284 380 287 L 380 286 Q 423 248 497 241 L 527 241 L 550 244 L 592 256 L 603 262 L 604 264 L 607 263 L 624 274 Q 622 278 626 277 L 625 276 L 626 274 L 648 292 L 707 221 L 706 218 L 704 215 L 703 215 L 686 203 L 684 201 L 682 200 L 680 198 L 643 179 L 621 170 L 618 169 L 617 169 L 606 165 L 603 164 L 600 164 L 594 162 L 594 160 L 592 161 L 569 156 L 549 154 L 549 152 L 544 153 L 542 153 L 490 152 L 487 153 L 482 152 Z M 859 157 L 856 160 L 858 165 L 859 168 L 861 167 L 863 165 L 864 160 L 859 157 Z M 783 167 L 776 170 L 772 176 L 773 184 Q 775 189 783 190 L 790 188 Q 795 184 796 176 L 795 175 L 793 173 Q 791 167 783 167 Z M 719 176 L 713 178 L 711 182 L 712 190 Q 714 195 724 193 L 728 187 L 727 180 Q 725 175 719 176 Z M 822 199 L 815 203 L 813 205 L 810 207 L 810 209 L 809 213 L 812 222 L 822 227 L 832 224 L 836 216 L 837 213 L 833 203 L 826 199 L 822 199 Z M 862 205 L 861 206 Q 857 205 859 211 L 865 213 L 867 207 L 862 205 Z M 741 206 L 736 209 L 738 210 L 737 210 L 736 213 L 742 216 L 746 215 L 747 209 Q 746 205 741 206 Z M 778 211 L 772 215 L 773 221 L 779 222 L 782 218 L 779 213 L 778 211 Z M 730 240 L 731 242 L 728 243 L 722 252 L 724 259 Q 726 263 733 263 L 736 264 L 739 263 L 745 256 Q 746 247 743 244 L 738 242 L 738 240 L 736 241 L 730 240 Z M 788 253 L 784 257 Q 783 263 786 262 L 790 264 L 792 263 L 794 259 L 793 254 L 788 253 Z M 825 263 L 822 265 L 818 267 L 817 276 L 820 276 L 824 279 L 831 277 L 833 273 L 832 268 L 825 263 Z M 757 282 L 754 293 L 753 295 L 753 297 Q 749 315 741 329 L 739 330 L 739 332 L 725 353 Q 708 373 685 387 L 683 387 L 682 389 L 680 390 L 677 391 L 676 393 L 646 409 L 644 408 L 643 410 L 604 428 L 601 427 L 600 429 L 577 439 L 574 440 L 573 442 Q 538 457 512 482 L 500 495 L 498 495 L 483 516 Q 484 519 480 517 L 481 520 L 474 533 L 473 535 L 473 537 L 467 556 Q 469 563 466 563 L 466 565 L 465 583 L 467 583 Q 467 596 472 606 L 471 608 L 473 608 Q 475 621 483 630 L 482 632 L 484 631 L 484 634 L 486 634 L 497 649 L 498 652 L 501 652 L 508 661 L 541 686 L 540 686 L 540 687 L 543 686 L 598 724 L 599 726 L 612 735 L 615 737 L 618 742 L 624 745 L 628 752 L 635 758 L 637 759 Q 652 777 661 802 L 660 805 L 662 805 L 665 819 L 664 830 L 666 831 L 666 834 L 664 834 L 665 839 Q 664 859 656 872 L 657 874 L 665 868 L 684 843 Q 695 823 698 797 Q 699 772 694 755 Q 688 735 678 720 L 678 718 L 677 717 L 669 705 L 663 701 L 661 698 Q 635 669 602 649 L 600 647 L 599 647 L 590 641 L 588 639 Q 566 628 549 612 L 547 610 L 541 604 L 537 602 L 528 591 L 530 590 L 527 589 L 525 586 L 527 585 L 527 584 L 524 583 L 524 580 L 520 582 L 522 583 L 520 586 L 522 592 L 522 594 L 521 600 L 523 600 L 522 605 L 524 605 Q 525 621 532 632 L 531 634 L 533 634 L 532 637 L 534 636 L 540 648 L 539 648 Q 518 629 513 596 Q 511 568 522 554 L 526 551 L 525 550 L 533 540 Q 548 522 573 513 L 572 512 L 647 479 L 649 480 L 649 479 L 666 470 L 668 471 L 668 470 L 701 450 L 701 452 L 702 450 Q 704 444 707 447 L 707 446 L 719 436 L 720 435 L 723 433 L 730 424 L 734 423 L 733 422 Q 763 392 768 338 L 768 336 L 769 334 L 767 308 L 759 285 Q 760 281 757 282 Z M 696 290 L 694 292 L 693 293 L 693 295 L 692 298 L 698 300 L 699 302 L 699 301 L 702 299 L 703 297 L 702 292 L 696 290 Z M 794 304 L 790 311 L 791 314 L 797 315 L 800 314 L 800 313 L 800 311 L 799 306 L 794 304 Z M 722 319 L 720 327 L 720 329 L 725 330 L 730 329 L 731 323 Q 729 318 722 319 Z M 683 327 L 679 329 L 674 336 L 675 344 L 684 350 Q 691 351 694 347 L 697 341 L 695 332 Q 692 326 683 327 Z M 642 332 L 639 337 L 641 341 L 643 342 L 645 344 L 649 340 L 648 333 L 642 332 Z M 660 366 L 656 371 L 657 373 Q 658 376 665 375 L 667 372 L 666 369 Q 665 365 660 366 Z M 669 512 L 668 515 L 577 515 L 574 516 L 571 516 L 573 515 L 571 514 L 570 517 L 570 518 L 568 517 L 568 519 L 566 526 L 566 528 L 567 530 L 575 534 L 582 533 L 584 533 Q 587 532 586 535 Q 589 536 588 533 L 593 534 L 599 533 L 601 533 L 615 534 L 617 533 L 620 535 L 620 533 L 623 534 L 639 533 L 645 533 L 650 534 L 651 536 L 652 536 L 654 533 L 656 533 L 660 535 L 662 534 L 664 534 Q 672 534 675 529 Q 676 520 673 517 L 669 516 L 669 512 Z M 702 513 L 698 514 L 696 516 L 696 569 L 695 570 L 696 571 L 696 710 L 710 737 L 716 757 L 718 775 L 718 777 L 717 783 L 719 786 L 718 800 L 717 803 L 713 818 Q 729 814 742 805 L 744 806 L 743 805 L 752 799 L 754 800 L 753 799 L 761 793 L 772 780 L 773 767 L 772 765 L 773 760 L 772 757 L 773 754 L 772 752 L 773 746 L 772 743 L 773 740 L 773 738 L 772 736 L 772 734 L 773 732 L 772 729 L 773 726 L 773 724 L 772 716 L 772 714 L 773 712 L 772 708 L 774 704 L 772 697 L 773 695 L 773 693 L 772 689 L 773 684 L 772 681 L 773 679 L 773 677 L 772 673 L 773 670 L 772 668 L 773 665 L 772 662 L 773 655 L 772 652 L 773 646 L 773 644 L 772 639 L 773 631 L 773 629 L 772 627 L 772 625 L 775 617 L 774 616 L 772 617 L 773 615 L 773 613 L 772 611 L 774 610 L 773 606 L 772 603 L 773 601 L 772 599 L 773 596 L 772 593 L 772 589 L 773 586 L 772 584 L 773 581 L 773 579 L 772 577 L 774 574 L 772 571 L 774 570 L 775 568 L 773 569 L 772 567 L 773 563 L 772 560 L 772 558 L 773 554 L 772 547 L 773 542 L 772 539 L 773 536 L 772 531 L 772 529 L 773 527 L 771 522 L 765 516 L 762 515 L 748 514 L 746 514 L 744 513 L 741 514 L 723 513 L 721 513 L 718 514 L 713 513 L 708 514 L 706 514 L 702 513 Z M 542 563 L 542 565 L 539 566 L 536 576 L 538 575 L 538 578 Q 543 584 557 582 L 559 582 L 568 582 L 570 584 L 570 582 L 584 582 L 584 584 L 587 584 L 585 583 L 588 582 L 590 582 L 596 583 L 601 582 L 603 582 L 603 584 Q 606 585 605 582 L 612 583 L 627 582 L 629 582 L 637 583 L 667 582 L 666 584 L 669 584 L 668 583 L 670 581 L 675 572 L 673 568 L 666 563 L 661 564 L 655 563 L 651 563 L 630 564 L 597 563 L 595 563 L 588 564 L 573 563 L 571 563 L 548 564 L 542 563 Z M 619 610 Q 619 615 614 613 L 612 613 L 606 612 L 603 613 L 603 611 Q 601 614 595 613 L 593 613 L 580 613 L 579 611 L 576 612 L 578 612 L 576 615 L 602 628 L 610 630 L 611 632 L 613 631 L 615 631 L 617 632 L 667 630 L 671 624 L 670 617 L 661 612 L 649 613 L 647 613 L 641 611 L 640 613 L 627 612 L 625 612 L 619 613 L 619 610 Z M 504 688 L 502 689 Q 476 709 470 748 Q 469 762 473 771 L 472 773 L 479 777 L 506 779 L 507 780 L 506 768 L 505 765 Q 503 730 517 712 L 519 713 L 520 713 L 519 711 L 517 711 L 520 705 L 522 705 L 516 697 Q 512 690 504 688 Z M 580 731 L 580 733 L 531 733 L 523 739 Q 524 743 521 742 L 522 746 L 523 743 L 523 747 L 521 748 L 528 751 L 537 752 L 539 752 L 541 751 L 543 752 L 546 751 L 553 752 L 562 751 L 565 752 L 568 751 L 570 751 L 574 752 L 576 751 L 578 752 L 581 751 L 583 752 L 586 751 L 593 752 L 595 751 L 597 752 L 599 752 L 601 751 L 603 751 L 606 752 L 608 751 L 610 751 L 612 752 L 611 747 L 591 734 L 582 733 L 582 732 L 580 731 Z "/><path fill="rgb(7,210,252)" stroke="rgb(7,210,252)" stroke-width="0" opacity="0.9882352941176471" d="M 819.5 133 L 824 134.5 L 822.5 139 L 818 137.5 L 819.5 133 Z "/><path fill="rgb(7,210,252)" stroke="rgb(7,210,252)" stroke-width="0" opacity="0.9882352941176471" d="M 748.5 148 Q 752.3 149.5 751 155 L 747.5 156 L 745 155 L 744 151.5 L 745 149 L 748.5 148 Z "/><path fill="rgb(7,210,252)" stroke="rgb(7,210,252)" stroke-width="0" opacity="0.9882352941176471" d="M 487.5 153 L 489.5 154 L 490.5 153 L 534.5 153 L 573.5 158 L 615.5 169 Q 666.8 187.7 706 218.5 L 696 233.5 L 647.5 291 Q 620.9 264.1 580.5 251 L 537.5 241 L 496.5 240 L 464.5 244 L 426.5 256 Q 397.4 268.6 375 287 L 373.5 289 L 353 308.5 Q 317.7 348.7 301 407.5 L 294 437.5 L 290 467.5 L 289 532.5 Q 300.1 664.4 375.5 732 Q 400.8 755.2 434.5 770 Q 460.8 782.2 495.5 786 L 497.5 786 L 517.5 787 L 540.5 786 L 569.5 782 Q 597.2 776.2 619.5 765 Q 633.9 778.6 642 798.5 Q 649.2 814.8 647 840.5 L 643.5 849 Q 588.4 875.4 504.5 873 Q 467.2 871.3 436.5 863 Q 403 854 374.5 840 Q 314.9 810.6 273 763.5 Q 226.6 711.9 201 639.5 Q 189.1 604.9 184 563.5 Q 179.8 526.2 182 482.5 Q 186.6 408.6 211 354.5 Q 238.2 291.7 283.5 247 Q 321.2 208.7 372.5 184 Q 400.4 170.4 433.5 162 Q 458.5 155.5 487.5 153 Z "/><path fill="rgb(7,210,252)" stroke="rgb(7,210,252)" stroke-width="0" opacity="0.9882352941176471" d="M 858.5 158 Q 862.9 156.5 862 159.5 L 863 164 L 859.5 165 L 857 159.5 L 858.5 158 Z "/><path fill="rgb(7,210,252)" stroke="rgb(7,210,252)" stroke-width="0" opacity="0.9882352941176471" d="M 781.5 168 Q 790.4 167.6 793 173.5 L 794 180.5 L 789.5 187 L 781.5 189 L 774 183.5 L 773 175.5 L 777.5 170 L 781.5 168 Z "/><path fill="rgb(7,210,252)" stroke="rgb(7,210,252)" stroke-width="0" opacity="0.9882352941176471" d="M 717.5 177 Q 724.4 176.1 726 180.5 L 727 186.5 L 723.5 192 Q 715 194 713 189.5 L 712 181.5 L 717.5 177 Z "/><path fill="rgb(7,210,252)" stroke="rgb(7,210,252)" stroke-width="0" opacity="0.9882352941176471" d="M 820.5 200 Q 831.6 198.9 834 206.5 L 836 214.5 L 829.5 224 L 820.5 226 L 812 219.5 L 810 211.5 L 816.5 202 L 820.5 200 Z "/><path fill="rgb(7,210,252)" stroke="rgb(7,210,252)" stroke-width="0" opacity="0.9882352941176471" d="M 861.5 206 L 866 207.5 L 864.5 212 L 860 211 L 861.5 206 Z "/><path fill="rgb(7,210,252)" stroke="rgb(7,210,252)" stroke-width="0" opacity="0.9882352941176471" d="M 740.5 207 L 746 208.5 L 744.5 215 L 739 213.5 L 738 210.5 L 740.5 207 Z "/><path fill="rgb(7,210,252)" stroke="rgb(7,210,252)" stroke-width="0" opacity="0.9882352941176471" d="M 774 213 Q 779.5 211.8 781 215.5 L 778.5 221 L 773 218.5 L 774 213 Z "/><path fill="rgb(7,210,252)" stroke="rgb(7,210,252)" stroke-width="0" opacity="0.9882352941176471" d="M 730.5 242 Q 741.6 240.4 744 247.5 Q 746.2 259.7 738.5 262 L 733.5 263 L 726 260 L 723 250.5 L 728.5 243 L 730.5 242 Z "/><path fill="rgb(7,210,252)" stroke="rgb(7,210,252)" stroke-width="0" opacity="0.9882352941176471" d="M 787.5 254 L 792 255.5 L 793 258.5 L 790.5 262 L 785 260.5 Q 784 255 787.5 254 Z "/><path fill="rgb(7,210,252)" stroke="rgb(7,210,252)" stroke-width="0" opacity="0.9882352941176471" d="M 825.5 264 L 831 267.5 L 832 272.5 L 827.5 278 Q 821.7 278.8 820 275.5 L 819 268.5 L 825.5 264 Z "/><path fill="rgb(7,210,252)" stroke="rgb(7,210,252)" stroke-width="0" opacity="0.9882352941176471" d="M 757.5 284 Q 769.3 304.2 768 337.5 Q 759.4 405.4 715.5 438 L 678.5 463 Q 634 486 584.5 504 L 559.5 517 Q 541.4 527.9 528 543.5 Q 510.1 559.6 512 595.5 Q 518.8 635.2 544.5 656 L 545 654.5 Q 524.6 627.6 522 584 L 524 585.5 L 527 592 L 529 593.5 L 545.5 611 L 571.5 631 L 632.5 672 L 658 695.5 L 664 704 L 666 705.5 Q 680.6 721.4 689 743.5 L 696 768.5 L 697 793.5 Q 691.2 844.2 660.5 870 L 658.5 871 L 659 869.5 Q 667.3 851.8 667 825.5 Q 664.3 801.7 655 784.5 Q 640.2 757.3 617.5 738 L 589.5 716 L 526.5 674 L 494 643.5 Q 479.9 627.1 472 604.5 L 467 581.5 L 467 564.5 Q 469.5 538 481 520.5 L 506.5 488 Q 526.7 468.7 551.5 454 L 590.5 434 Q 630 419 665.5 400 Q 692.5 385.3 714 366 L 715.5 364 L 718.5 360 L 720 358.5 Q 748 330.5 757.5 284 Z "/><path fill="rgb(7,210,252)" stroke="rgb(7,210,252)" stroke-width="0" opacity="0.9882352941176471" d="M 695.5 291 Q 701.6 289.8 701 292.5 L 702 296.5 L 701 299 L 697.5 300 L 694 297.5 L 695.5 291 Z "/><path fill="rgb(7,210,252)" stroke="rgb(7,210,252)" stroke-width="0" opacity="0.9882352941176471" d="M 793.5 306 L 799 308.5 L 796.5 314 Q 791.1 315.9 792 312.5 L 791 308.5 L 793.5 306 Z "/><path fill="rgb(7,210,252)" stroke="rgb(7,210,252)" stroke-width="0" opacity="0.9882352941176471" d="M 724.5 320 L 729 321 L 730 326.5 Q 729 330 723.5 329 Q 720 328 721 322.5 L 724.5 320 Z "/><path fill="rgb(7,210,252)" stroke="rgb(7,210,252)" stroke-width="0" opacity="0.9882352941176471" d="M 681.5 328 Q 690.9 326.8 694 331 Q 696.9 333.9 696 341.5 L 693 347 L 683.5 349 L 676 343.5 L 675 335.5 L 678.5 330 L 681.5 328 Z "/><path fill="rgb(7,210,252)" stroke="rgb(7,210,252)" stroke-width="0" opacity="0.9882352941176471" d="M 642.5 333 L 648 335.5 L 646.5 341 L 641 339.5 L 640 335.5 L 642.5 333 Z "/><path fill="rgb(7,210,252)" stroke="rgb(7,210,252)" stroke-width="0" opacity="0.9882352941176471" d="M 659 367 Q 664.5 365.8 666 369.5 L 664.5 374 L 661.5 375 L 659 374 L 658 369.5 L 659 367 Z "/><path fill="rgb(7,210,252)" stroke="rgb(7,210,252)" stroke-width="0" opacity="0.9882352941176471" d="M 697 515 L 760.5 515 L 769 520.5 Q 774.3 529.2 772 545.5 L 772 547.5 L 771 555.5 L 772 559.5 L 771 562.5 L 772 585.5 L 772 587.5 L 771 589.5 L 772 592.5 L 771 619.5 L 772 620.5 L 772 735.5 L 771 743.5 L 772 758.5 L 772 760.5 L 771 763.5 L 772 768.5 Q 772.9 783.9 763.5 789 Q 743.4 806.4 715.5 816 L 716 814.5 Q 721.4 798.4 720 775.5 L 713 741.5 L 697 708.5 L 697 515 Z "/><path fill="rgb(7,210,252)" stroke="rgb(7,210,252)" stroke-width="0" opacity="0.9882352941176471" d="M 576.5 516 L 668.5 516 L 673 519.5 L 674 527.5 L 670.5 532 L 667.5 533 L 665.5 533 L 589.5 532 L 587.5 532 L 579.5 533 L 576.5 532 Q 569.3 533.3 568 528.5 L 567 524.5 L 571.5 517 L 576.5 516 Z "/><path fill="rgb(7,210,252)" stroke="rgb(7,210,252)" stroke-width="0" opacity="0.9882352941176471" d="M 556.5 564 L 557.5 565 L 611.5 565 L 613.5 565 L 617.5 564 L 619.5 565 L 621.5 565 L 633.5 564 L 651.5 565 L 653.5 565 L 659.5 564 L 668.5 565 L 672 567.5 L 673 575.5 L 669.5 580 L 666.5 581 L 561.5 581 L 559.5 581 Q 544.1 583.9 539 576.5 L 538 571.5 L 542.5 565 L 556.5 564 Z "/><path fill="rgb(7,210,252)" stroke="rgb(7,210,252)" stroke-width="0" opacity="0.9882352941176471" d="M 579.5 614 L 665.5 614 L 669 617.5 L 668 628 L 665.5 629 L 608.5 629 Q 591.1 623.6 579.5 614 Z "/><path fill="rgb(7,210,252)" stroke="rgb(7,210,252)" stroke-width="0" opacity="0.9882352941176471" d="M 503.5 689 L 512 693.5 Q 518.3 696.7 519 705.5 Q 501.3 725.8 504 766.5 L 506 778 L 486.5 777 L 475 773.5 Q 469.5 763.5 471 746.5 Q 477.7 712.4 498 693 L 503.5 689 Z "/><path fill="rgb(7,210,252)" stroke="rgb(7,210,252)" stroke-width="0" opacity="0.9882352941176471" d="M 530.5 734 L 584.5 734 Q 600.9 738.1 610 749.5 L 528.5 750 L 525 747.5 L 524 739.5 L 526.5 736 L 530.5 734 Z "/><path fill="rgb(2,95,137)" stroke="rgb(2,95,137)" stroke-width="0" opacity="0.5058823529411764" d="M 817.5 134 L 819.5 139 L 823.5 138 L 824 140 L 817 139 L 817.5 134 Z "/><path fill="rgb(2,95,137)" stroke="rgb(2,95,137)" stroke-width="0" opacity="0.5058823529411764" d="M 501.5 152 L 528 152.5 L 501.5 153 L 501.5 152 Z "/><path fill="rgb(2,95,137)" stroke="rgb(2,95,137)" stroke-width="0" opacity="0.5058823529411764" d="M 858.5 157 L 864 159.5 L 862.5 165 L 860.5 166 L 861.5 164 Q 864.5 164.9 863 160.5 L 862 158 L 858.5 157 Z "/><path fill="rgb(2,95,137)" stroke="rgb(2,95,137)" stroke-width="0" opacity="0.5058823529411764" d="M 365.5 187 L 367 187.5 L 360.5 191 L 361.5 189 L 365.5 187 Z "/><path fill="rgb(2,95,137)" stroke="rgb(2,95,137)" stroke-width="0" opacity="0.5058823529411764" d="M 496.5 240 L 528 240.5 L 496.5 241 L 496.5 240 Z "/><path fill="rgb(2,95,137)" stroke="rgb(2,95,137)" stroke-width="0" opacity="0.5058823529411764" d="M 323.5 352 L 324 353.5 L 320.5 359 L 321 357.5 L 323.5 352 Z "/><path fill="rgb(2,95,137)" stroke="rgb(2,95,137)" stroke-width="0" opacity="0.5058823529411764" d="M 580.5 438 L 582 438.5 L 563.5 448 L 564.5 446 L 580.5 438 Z "/><path fill="rgb(2,95,137)" stroke="rgb(2,95,137)" stroke-width="0" opacity="0.5058823529411764" d="M 709.5 442 L 707.5 445 L 704.5 447 L 706.5 444 L 709.5 442 Z "/><path fill="rgb(2,95,137)" stroke="rgb(2,95,137)" stroke-width="0" opacity="0.5058823529411764" d="M 182.5 472 L 183 481.5 L 182 481.5 L 182.5 472 Z "/><path fill="rgb(2,95,137)" stroke="rgb(2,95,137)" stroke-width="0" opacity="0.5058823529411764" d="M 289.5 481 L 290 501.5 L 289 501.5 L 289.5 481 Z "/><path fill="rgb(2,95,137)" stroke="rgb(2,95,137)" stroke-width="0" opacity="0.5058823529411764" d="M 181.5 488 L 182 530.5 L 181 530.5 L 181.5 488 Z "/><path fill="rgb(2,95,137)" stroke="rgb(2,95,137)" stroke-width="0" opacity="0.5058823529411764" d="M 584.5 504 L 586 504.5 L 571.5 512 L 572.5 510 L 584.5 504 Z "/><path fill="rgb(2,95,137)" stroke="rgb(2,95,137)" stroke-width="0" opacity="0.5058823529411764" d="M 289.5 514 L 290 532.5 L 289 532.5 L 289.5 514 Z "/><path fill="rgb(2,95,137)" stroke="rgb(2,95,137)" stroke-width="0" opacity="0.5058823529411764" d="M 696.5 515 L 697 707.5 L 696 707.5 L 696.5 515 Z "/><path fill="rgb(2,95,137)" stroke="rgb(2,95,137)" stroke-width="0" opacity="0.5058823529411764" d="M 589.5 532 L 659 532.5 L 589.5 533 L 589.5 532 Z "/><path fill="rgb(2,95,137)" stroke="rgb(2,95,137)" stroke-width="0" opacity="0.5058823529411764" d="M 290.5 535 L 291 544.5 L 290 544.5 L 290.5 535 Z "/><path fill="rgb(2,95,137)" stroke="rgb(2,95,137)" stroke-width="0" opacity="0.5058823529411764" d="M 771.5 562 L 772 575.5 L 771 575.5 L 771.5 562 Z "/><path fill="rgb(2,95,137)" stroke="rgb(2,95,137)" stroke-width="0" opacity="0.5058823529411764" d="M 543.5 564 L 556 564.5 L 543.5 565 L 543.5 564 Z "/><path fill="rgb(2,95,137)" stroke="rgb(2,95,137)" stroke-width="0" opacity="0.5058823529411764" d="M 557.5 564 L 612 564.5 L 557.5 565 L 557.5 564 Z "/><path fill="rgb(2,95,137)" stroke="rgb(2,95,137)" stroke-width="0" opacity="0.5058823529411764" d="M 621.5 564 L 633 564.5 L 621.5 565 L 621.5 564 Z "/><path fill="rgb(2,95,137)" stroke="rgb(2,95,137)" stroke-width="0" opacity="0.5058823529411764" d="M 634.5 564 L 652 564.5 L 634.5 565 L 634.5 564 Z "/><path fill="rgb(2,95,137)" stroke="rgb(2,95,137)" stroke-width="0" opacity="0.5058823529411764" d="M 548.5 612 L 557 619.5 L 552.5 616 L 548.5 612 Z "/><path fill="rgb(2,95,137)" stroke="rgb(2,95,137)" stroke-width="0" opacity="0.5058823529411764" d="M 475.5 613 L 480 621.5 L 478 620.5 L 475.5 613 Z "/><path fill="rgb(2,95,137)" stroke="rgb(2,95,137)" stroke-width="0" opacity="0.5058823529411764" d="M 578.5 613 L 665 613.5 L 578.5 614 L 578.5 613 Z "/><path fill="rgb(2,95,137)" stroke="rgb(2,95,137)" stroke-width="0" opacity="0.5058823529411764" d="M 666.5 614 Q 672 616 670 625.5 L 668 626.5 L 669 617.5 L 666.5 614 Z "/><path fill="rgb(2,95,137)" stroke="rgb(2,95,137)" stroke-width="0" opacity="0.5058823529411764" d="M 610.5 629 L 665 629.5 L 610.5 630 L 610.5 629 Z "/><path fill="rgb(2,95,137)" stroke="rgb(2,95,137)" stroke-width="0" opacity="0.5058823529411764" d="M 198.5 630 L 201 637.5 L 200 637.5 L 198.5 630 Z "/><path fill="rgb(2,95,137)" stroke="rgb(2,95,137)" stroke-width="0" opacity="0.5058823529411764" d="M 532.5 631 L 536 638.5 L 535 638.5 L 532.5 631 Z "/><path fill="rgb(2,95,137)" stroke="rgb(2,95,137)" stroke-width="0" opacity="0.5058823529411764" d="M 485.5 632 Q 497.5 650 514 663.5 L 493 643.5 L 485.5 632 Z "/><path fill="rgb(2,95,137)" stroke="rgb(2,95,137)" stroke-width="0" opacity="0.5058823529411764" d="M 529.5 638 L 537 646.5 L 531 641.5 L 529.5 638 Z "/><path fill="rgb(2,95,137)" stroke="rgb(2,95,137)" stroke-width="0" opacity="0.5058823529411764" d="M 537.5 648 L 545 654 L 544.5 656 L 537.5 648 Z "/><path fill="rgb(2,95,137)" stroke="rgb(2,95,137)" stroke-width="0" opacity="0.5058823529411764" d="M 320.5 655 L 328 669.5 L 326 668.5 L 320.5 655 Z "/><path fill="rgb(2,95,137)" stroke="rgb(2,95,137)" stroke-width="0" opacity="0.5058823529411764" d="M 515.5 664 L 520.5 670 L 515 666 L 515.5 664 Z "/><path fill="rgb(2,95,137)" stroke="rgb(2,95,137)" stroke-width="0" opacity="0.5058823529411764" d="M 214.5 673 L 230 702.5 L 228 701.5 L 214.5 673 Z "/><path fill="rgb(2,95,137)" stroke="rgb(2,95,137)" stroke-width="0" opacity="0.5058823529411764" d="M 531.5 677 L 540 683.5 L 537.5 682 L 531.5 677 Z "/><path fill="rgb(2,95,137)" stroke="rgb(2,95,137)" stroke-width="0" opacity="0.5058823529411764" d="M 338.5 688 L 348 700.5 L 345 698.5 L 338.5 688 Z "/><path fill="rgb(2,95,137)" stroke="rgb(2,95,137)" stroke-width="0" opacity="0.5058823529411764" d="M 348.5 702 L 357 711.5 L 352 707.5 L 348.5 702 Z "/><path fill="rgb(2,95,137)" stroke="rgb(2,95,137)" stroke-width="0" opacity="0.5058823529411764" d="M 490.5 702 L 488 705.5 L 483.5 712 L 485 709.5 L 490.5 702 Z "/><path fill="rgb(2,95,137)" stroke="rgb(2,95,137)" stroke-width="0" opacity="0.5058823529411764" d="M 519.5 703 L 520 705.5 L 515.5 712 L 516 710.5 L 519.5 703 Z "/><path fill="rgb(2,95,137)" stroke="rgb(2,95,137)" stroke-width="0" opacity="0.5058823529411764" d="M 230.5 704 L 243 723.5 L 241 722.5 L 230.5 704 Z "/><path fill="rgb(2,95,137)" stroke="rgb(2,95,137)" stroke-width="0" opacity="0.5058823529411764" d="M 583.5 712 L 592 718.5 L 589.5 717 L 583.5 712 Z "/><path fill="rgb(2,95,137)" stroke="rgb(2,95,137)" stroke-width="0" opacity="0.5058823529411764" d="M 481.5 715 L 481 716.5 L 477.5 724 L 477 722.5 L 481.5 715 Z "/><path fill="rgb(2,95,137)" stroke="rgb(2,95,137)" stroke-width="0" opacity="0.5058823529411764" d="M 702.5 720 L 709 732.5 L 708 732.5 L 702.5 720 Z "/><path fill="rgb(2,95,137)" stroke="rgb(2,95,137)" stroke-width="0" opacity="0.5058823529411764" d="M 597.5 722 L 604 727.5 L 600.5 725 L 597.5 722 Z "/><path fill="rgb(2,95,137)" stroke="rgb(2,95,137)" stroke-width="0" opacity="0.5058823529411764" d="M 243.5 725 Q 266.5 760.5 297.5 788 L 316 803.5 L 313.5 802 L 310.5 800 L 270 761.5 L 243.5 725 Z "/><path fill="rgb(2,95,137)" stroke="rgb(2,95,137)" stroke-width="0" opacity="0.5058823529411764" d="M 606.5 745 L 611 749.5 L 609.5 751 L 528.5 751 L 527 749.5 L 528.5 750 L 610 749.5 L 606.5 745 Z "/><path fill="rgb(2,95,137)" stroke="rgb(2,95,137)" stroke-width="0" opacity="0.5058823529411764" d="M 635.5 757 L 645 768.5 L 642 766.5 L 635.5 757 Z "/><path fill="rgb(2,95,137)" stroke="rgb(2,95,137)" stroke-width="0" opacity="0.5058823529411764" d="M 447.5 774 L 458 777.5 L 455.5 778 L 447.5 774 Z "/><path fill="rgb(2,95,137)" stroke="rgb(2,95,137)" stroke-width="0" opacity="0.5058823529411764" d="M 719.5 775 L 720 793.5 L 719 793.5 L 719.5 775 Z "/><path fill="rgb(2,95,137)" stroke="rgb(2,95,137)" stroke-width="0" opacity="0.5058823529411764" d="M 629.5 776 L 641 795.5 L 640 795.5 L 629.5 776 Z "/><path fill="rgb(2,95,137)" stroke="rgb(2,95,137)" stroke-width="0" opacity="0.5058823529411764" d="M 471.5 781 L 480 782.5 L 475.5 783 L 471.5 781 Z "/><path fill="rgb(2,95,137)" stroke="rgb(2,95,137)" stroke-width="0" opacity="0.5058823529411764" d="M 529.5 785 L 541 785.5 L 529.5 786 L 529.5 785 Z "/><path fill="rgb(2,95,137)" stroke="rgb(2,95,137)" stroke-width="0" opacity="0.5058823529411764" d="M 767.5 785 L 763.5 790 L 749.5 800 L 750.5 798 L 767.5 785 Z "/><path fill="rgb(2,95,137)" stroke="rgb(2,95,137)" stroke-width="0" opacity="0.5058823529411764" d="M 747.5 800 L 745.5 803 L 723.5 814 L 723.5 813 L 747.5 800 Z "/><path fill="rgb(2,95,137)" stroke="rgb(2,95,137)" stroke-width="0" opacity="0.5058823529411764" d="M 317.5 804 L 342 821.5 L 340.5 821 L 320.5 808 L 317.5 804 Z "/><path fill="rgb(2,95,137)" stroke="rgb(2,95,137)" stroke-width="0" opacity="0.5058823529411764" d="M 647.5 821 L 648 838.5 L 647 838.5 L 647.5 821 Z "/><path fill="rgb(2,95,137)" stroke="rgb(2,95,137)" stroke-width="0" opacity="0.5058823529411764" d="M 343.5 822 L 372 838.5 L 370.5 838 Q 354 832 343.5 822 Z "/><path fill="rgb(2,95,137)" stroke="rgb(2,95,137)" stroke-width="0" opacity="0.5058823529411764" d="M 690.5 824 L 691 825.5 L 687.5 833 L 687 831.5 L 690.5 824 Z "/><path fill="rgb(2,95,137)" stroke="rgb(2,95,137)" stroke-width="0" opacity="0.5058823529411764" d="M 666.5 825 L 667 836.5 L 666 836.5 L 666.5 825 Z "/><path fill="rgb(2,95,137)" stroke="rgb(2,95,137)" stroke-width="0" opacity="0.5058823529411764" d="M 686.5 834 L 687 835.5 L 682.5 843 L 683 841.5 L 686.5 834 Z "/><path fill="rgb(2,95,137)" stroke="rgb(2,95,137)" stroke-width="0" opacity="0.5058823529411764" d="M 373.5 839 L 392 847.5 L 390.5 848 L 374.5 841 L 373.5 839 Z "/><path fill="rgb(2,95,137)" stroke="rgb(2,95,137)" stroke-width="0" opacity="0.5058823529411764" d="M 646.5 841 L 647 844.5 L 643.5 850 L 640.5 851 L 640.5 850 L 645 847.5 L 646.5 841 Z "/><path fill="rgb(2,95,137)" stroke="rgb(2,95,137)" stroke-width="0" opacity="0.5058823529411764" d="M 681.5 844 L 681 845.5 Q 672.5 861 659.5 872 L 656.5 873 L 657.5 871 L 659 870.5 L 658 868.5 Q 663.5 859 664.5 845 L 665 850.5 L 659 870 L 669 861.5 L 681.5 844 Z "/><path fill="rgb(2,95,137)" stroke="rgb(2,95,137)" stroke-width="0" opacity="0.5058823529411764" d="M 398.5 850 L 413 855.5 L 410.5 856 L 398.5 850 Z "/><path fill="rgb(2,95,137)" stroke="rgb(2,95,137)" stroke-width="0" opacity="0.5058823529411764" d="M 632.5 853 L 634 853.5 L 622.5 858 L 622.5 857 L 632.5 853 Z "/><path fill="rgb(2,95,137)" stroke="rgb(2,95,137)" stroke-width="0" opacity="0.5058823529411764" d="M 414.5 856 L 425 859.5 L 422.5 860 L 414.5 856 Z "/><path fill="rgb(2,95,137)" stroke="rgb(2,95,137)" stroke-width="0" opacity="0.5058823529411764" d="M 426.5 860 L 436 862.5 L 433.5 863 L 426.5 861 L 426.5 860 Z "/><path fill="rgb(2,95,137)" stroke="rgb(2,95,137)" stroke-width="0" opacity="0.5058823529411764" d="M 605.5 862 L 608 862.5 L 593.5 866 L 593.5 865 L 605.5 862 Z "/><path fill="rgb(2,95,137)" stroke="rgb(2,95,137)" stroke-width="0" opacity="0.5058823529411764" d="M 437.5 863 L 449 865.5 L 445.5 866 L 439.5 865 L 437.5 863 Z "/><path fill="rgb(2,95,137)" stroke="rgb(2,95,137)" stroke-width="0" opacity="0.5058823529411764" d="M 450.5 866 L 471 869.5 L 464.5 870 L 450.5 867 L 450.5 866 Z "/><path fill="rgb(2,95,137)" stroke="rgb(2,95,137)" stroke-width="0" opacity="0.5058823529411764" d="M 577.5 868 L 582 868.5 L 571.5 870 L 571.5 869 L 577.5 868 Z "/><path fill="rgb(2,95,137)" stroke="rgb(2,95,137)" stroke-width="0" opacity="0.5058823529411764" d="M 472.5 870 L 504 872.5 L 486.5 873 L 472.5 871 L 472.5 870 Z "/><path fill="rgb(2,95,137)" stroke="rgb(2,95,137)" stroke-width="0" opacity="0.5058823529411764" d="M 556.5 871 L 563 871.5 L 540.5 873 L 540.5 872 L 556.5 871 Z "/><path fill="rgb(2,95,137)" stroke="rgb(2,95,137)" stroke-width="0" opacity="0.5058823529411764" d="M 505.5 873 L 535 873.5 L 505.5 874 L 505.5 873 Z "/><path fill="rgb(2,153,199)" stroke="rgb(2,153,199)" stroke-width="0" opacity="0.2235294117647059" d="M 748.5 147 L 749.5 149 L 747.5 149 L 745 150.5 L 744 150.5 L 745.5 148 L 748.5 147 Z "/><path fill="rgb(2,153,199)" stroke="rgb(2,153,199)" stroke-width="0" opacity="0.2235294117647059" d="M 542.5 152 L 546.5 153 L 548.5 152 L 547.5 154 L 541 153.5 L 542.5 152 Z "/><path fill="rgb(2,153,199)" stroke="rgb(2,153,199)" stroke-width="0" opacity="0.2235294117647059" d="M 782.5 167 Q 790.6 166.9 793 172.5 L 788.5 169 L 782.5 168 L 782.5 167 Z "/><path fill="rgb(2,153,199)" stroke="rgb(2,153,199)" stroke-width="0" opacity="0.2235294117647059" d="M 715.5 177 L 712 181.5 Q 710.7 189.3 715 191.5 L 712 189.5 L 711 181.5 L 713 178 L 715.5 177 Z "/><path fill="rgb(2,153,199)" stroke="rgb(2,153,199)" stroke-width="0" opacity="0.2235294117647059" d="M 725.5 190 L 723.5 193 L 716 192.5 Q 723.4 193.9 725.5 190 Z "/><path fill="rgb(2,153,199)" stroke="rgb(2,153,199)" stroke-width="0" opacity="0.2235294117647059" d="M 681.5 200 L 684 200.5 L 685.5 203 L 688 204.5 L 686.5 204 L 681.5 200 Z "/><path fill="rgb(2,153,199)" stroke="rgb(2,153,199)" stroke-width="0" opacity="0.2235294117647059" d="M 740.5 206 Q 746 205 747 208.5 L 745.5 215 L 746 213.5 L 744.5 207 L 739 208.5 L 738 211.5 L 740 214.5 L 737.5 213 L 736 212.5 L 736.5 210 L 738 209.5 L 736 208.5 L 740.5 206 Z "/><path fill="rgb(2,153,199)" stroke="rgb(2,153,199)" stroke-width="0" opacity="0.2235294117647059" d="M 698.5 210 L 699.5 213 L 702.5 215 L 704 214.5 L 706 217.5 L 707 220.5 L 706 220.5 L 703.5 216 L 697 211.5 L 698.5 210 Z "/><path fill="rgb(2,153,199)" stroke="rgb(2,153,199)" stroke-width="0" opacity="0.2235294117647059" d="M 773.5 213 L 774 214.5 L 773 218.5 L 778.5 221 L 781 219.5 L 781 221.5 L 780.5 223 L 779.5 221 L 775.5 222 L 773 221 L 772 214.5 L 773.5 213 Z "/><path fill="rgb(2,153,199)" stroke="rgb(2,153,199)" stroke-width="0" opacity="0.2235294117647059" d="M 810.5 217 L 815 223.5 L 812 221.5 L 810.5 219 L 809 219.5 L 810.5 217 Z "/><path fill="rgb(2,153,199)" stroke="rgb(2,153,199)" stroke-width="0" opacity="0.2235294117647059" d="M 305.5 224 L 308 224.5 L 303 228.5 L 305.5 224 Z "/><path fill="rgb(2,153,199)" stroke="rgb(2,153,199)" stroke-width="0" opacity="0.2235294117647059" d="M 729.5 240 L 735.5 241 L 737.5 240 L 736.5 242 Q 730 243 729.5 240 Z "/><path fill="rgb(2,153,199)" stroke="rgb(2,153,199)" stroke-width="0" opacity="0.2235294117647059" d="M 791.5 252 L 791.5 254 L 793 256.5 L 794 258.5 L 792 263 L 789.5 264 L 785.5 262 Q 782.8 262.6 784 256.5 L 785 256.5 L 786.5 262 L 792 260.5 L 793 257.5 L 790.5 254 L 786.5 255 L 787.5 253 L 791.5 252 Z "/><path fill="rgb(2,153,199)" stroke="rgb(2,153,199)" stroke-width="0" opacity="0.2235294117647059" d="M 723.5 254 L 726 260 L 734 263.5 L 732.5 263 L 726.5 261 Q 724.8 263.8 723 259.5 L 724 257.5 L 723.5 254 Z "/><path fill="rgb(2,153,199)" stroke="rgb(2,153,199)" stroke-width="0" opacity="0.2235294117647059" d="M 743.5 257 L 740.5 263 L 738.5 263 L 735.5 264 L 736.5 262 L 743.5 257 Z "/><path fill="rgb(2,153,199)" stroke="rgb(2,153,199)" stroke-width="0" opacity="0.2235294117647059" d="M 827.5 264 L 829.5 265 L 831 264.5 L 831.5 268 L 827.5 264 Z "/><path fill="rgb(2,153,199)" stroke="rgb(2,153,199)" stroke-width="0" opacity="0.2235294117647059" d="M 265.5 266 L 261.5 271 Q 258.5 269.5 261.5 268 Q 263.5 271 265.5 266 Z "/><path fill="rgb(2,153,199)" stroke="rgb(2,153,199)" stroke-width="0" opacity="0.2235294117647059" d="M 818.5 273 L 822 277.5 L 817 275.5 L 818.5 273 Z "/><path fill="rgb(2,153,199)" stroke="rgb(2,153,199)" stroke-width="0" opacity="0.2235294117647059" d="M 828.5 277 L 830 279.5 L 829 279.5 L 828.5 278 L 823.5 279 L 823.5 278 L 828.5 277 Z "/><path fill="rgb(2,153,199)" stroke="rgb(2,153,199)" stroke-width="0" opacity="0.2235294117647059" d="M 250 283 L 252 283.5 L 247.5 289 L 249 286.5 L 250 283 Z "/><path fill="rgb(2,153,199)" stroke="rgb(2,153,199)" stroke-width="0" opacity="0.2235294117647059" d="M 652.5 286 L 647.5 292 L 646.5 290 L 647.5 291 L 652.5 286 Z "/><path fill="rgb(2,153,199)" stroke="rgb(2,153,199)" stroke-width="0" opacity="0.2235294117647059" d="M 695.5 290 L 702 291.5 L 701.5 293 L 701 291 L 694.5 292 L 695.5 290 Z "/><path fill="rgb(2,153,199)" stroke="rgb(2,153,199)" stroke-width="0" opacity="0.2235294117647059" d="M 692.5 293 Q 695.9 292.1 694 297.5 L 697 299.5 L 695.5 300 L 692 297.5 L 693 294.5 L 692.5 293 Z "/><path fill="rgb(2,153,199)" stroke="rgb(2,153,199)" stroke-width="0" opacity="0.2235294117647059" d="M 361.5 301 L 361 302.5 L 359.5 304 L 351 311.5 L 361.5 301 Z "/><path fill="rgb(2,153,199)" stroke="rgb(2,153,199)" stroke-width="0" opacity="0.2235294117647059" d="M 793.5 304 L 799 306 L 800 310.5 L 799 310.5 L 796.5 306 L 792 305.5 L 793.5 304 Z "/><path fill="rgb(2,153,199)" stroke="rgb(2,153,199)" stroke-width="0" opacity="0.2235294117647059" d="M 790.5 310 L 792 314 L 800 312 L 799.5 314 L 796.5 315 L 791 313.5 L 790.5 310 Z "/><path fill="rgb(2,153,199)" stroke="rgb(2,153,199)" stroke-width="0" opacity="0.2235294117647059" d="M 722 319 Q 728.7 317.9 731 322.5 L 730.5 325 L 729 321 L 723.5 320 Q 720 321 721 326.5 L 722.5 329 L 720 328.5 L 720 326.5 L 721 321.5 L 720.5 320 L 722 320.5 L 722 319 Z "/><path fill="rgb(2,153,199)" stroke="rgb(2,153,199)" stroke-width="0" opacity="0.2235294117647059" d="M 682.5 327 L 691 328.5 L 689.5 329 L 682.5 328 L 682.5 327 Z "/><path fill="rgb(2,153,199)" stroke="rgb(2,153,199)" stroke-width="0" opacity="0.2235294117647059" d="M 694.5 329 L 696 329.5 L 694 330.5 L 696 334.5 L 695 334.5 L 693 330.5 L 694.5 329 Z "/><path fill="rgb(2,153,199)" stroke="rgb(2,153,199)" stroke-width="0" opacity="0.2235294117647059" d="M 641.5 332 L 648 333 L 649 339.5 L 647.5 343 L 642.5 344 L 641 343.5 L 643 342.5 L 641 342 L 639 336.5 L 640 336.5 L 642.5 341 L 648 339.5 Q 649 334 645.5 333 L 640.5 335 L 640 333.5 L 641.5 332 Z "/><path fill="rgb(2,153,199)" stroke="rgb(2,153,199)" stroke-width="0" opacity="0.2235294117647059" d="M 675.5 333 L 676 334.5 L 674.5 342 L 674 335.5 L 675.5 333 Z "/><path fill="rgb(2,153,199)" stroke="rgb(2,153,199)" stroke-width="0" opacity="0.2235294117647059" d="M 691.5 347 L 690.5 349 L 683.5 350 L 683.5 349 Q 689.5 350 691.5 347 Z "/><path fill="rgb(2,153,199)" stroke="rgb(2,153,199)" stroke-width="0" opacity="0.2235294117647059" d="M 722.5 355 L 714 364.5 L 712.5 366 L 708 369.5 L 716 361.5 L 715.5 360 L 716.5 361 L 722.5 355 Z "/><path fill="rgb(2,153,199)" stroke="rgb(2,153,199)" stroke-width="0" opacity="0.2235294117647059" d="M 659.5 366 Q 665 365 666 368.5 L 663.5 367 Q 658.1 365.1 659 368.5 L 658 371.5 L 659 374 L 661 374.5 L 659.5 375 L 656 370.5 L 659.5 366 Z "/><path fill="rgb(2,153,199)" stroke="rgb(2,153,199)" stroke-width="0" opacity="0.2235294117647059" d="M 703.5 447 L 703.5 450 L 702 449.5 L 700.5 452 L 698 451.5 L 701 450.5 L 703.5 447 Z "/><path fill="rgb(2,153,199)" stroke="rgb(2,153,199)" stroke-width="0" opacity="0.2235294117647059" d="M 180.5 473 L 181 477.5 L 182 480.5 L 181.5 488 L 180 484.5 L 181 480.5 L 180 477.5 L 180.5 473 Z "/><path fill="rgb(2,153,199)" stroke="rgb(2,153,199)" stroke-width="0" opacity="0.2235294117647059" d="M 511.5 480 L 512 482.5 L 500.5 494 L 505 488.5 L 504.5 487 L 505.5 488 L 510 483.5 Q 507.2 481.7 511.5 480 Z "/><path fill="rgb(2,153,199)" stroke="rgb(2,153,199)" stroke-width="0" opacity="0.2235294117647059" d="M 668.5 512 L 669 516 L 574 515.5 L 574.5 513 L 576.5 515 L 668 515 L 668.5 512 Z "/><path fill="rgb(2,153,199)" stroke="rgb(2,153,199)" stroke-width="0" opacity="0.2235294117647059" d="M 700.5 512 L 703 512.5 L 702.5 514 L 706.5 513 L 711.5 514 L 717.5 514 L 720.5 513 L 722.5 513 L 740.5 514 L 743.5 513 L 745.5 514 L 747.5 514 L 760.5 513 L 759.5 515 L 697 514.5 L 701 513.5 L 700.5 512 Z "/><path fill="rgb(2,153,199)" stroke="rgb(2,153,199)" stroke-width="0" opacity="0.2235294117647059" d="M 570.5 514 L 573 514.5 L 571 515.5 L 573 516.5 L 568.5 519 L 567.5 517 L 569.5 518 L 570 516.5 L 570.5 514 Z "/><path fill="rgb(2,153,199)" stroke="rgb(2,153,199)" stroke-width="0" opacity="0.2235294117647059" d="M 566.5 527 L 568 528.5 L 571.5 533 L 567 529.5 L 566.5 527 Z "/><path fill="rgb(2,153,199)" stroke="rgb(2,153,199)" stroke-width="0" opacity="0.2235294117647059" d="M 674.5 528 L 670.5 533 L 669 532.5 L 674.5 528 Z "/><path fill="rgb(2,153,199)" stroke="rgb(2,153,199)" stroke-width="0" opacity="0.2235294117647059" d="M 181.5 531 L 182 539.5 L 181 539.5 L 180 535.5 L 181.5 531 Z "/><path fill="rgb(2,153,199)" stroke="rgb(2,153,199)" stroke-width="0" opacity="0.2235294117647059" d="M 614.5 533 L 616.5 534 L 620 533 L 619.5 535 L 617 534 L 616.5 536 L 616 534 L 613.5 535 L 614.5 533 Z "/><path fill="rgb(2,153,199)" stroke="rgb(2,153,199)" stroke-width="0" opacity="0.2235294117647059" d="M 654.5 533 L 657.5 534 L 659.5 533 L 662 533.5 L 659.5 535 L 656.5 536 L 654.5 533 Z "/><path fill="rgb(2,153,199)" stroke="rgb(2,153,199)" stroke-width="0" opacity="0.2235294117647059" d="M 526.5 547 L 525.5 551 L 522.5 553 L 524 550.5 L 526.5 547 Z "/><path fill="rgb(2,153,199)" stroke="rgb(2,153,199)" stroke-width="0" opacity="0.2235294117647059" d="M 465.5 563 L 467 563.5 L 467 583 L 465 582.5 L 466 564.5 L 465.5 563 Z "/><path fill="rgb(2,153,199)" stroke="rgb(2,153,199)" stroke-width="0" opacity="0.2235294117647059" d="M 548.5 563 L 571 563.5 L 548.5 564 L 548.5 563 Z "/><path fill="rgb(2,153,199)" stroke="rgb(2,153,199)" stroke-width="0" opacity="0.2235294117647059" d="M 572.5 563 L 587 563.5 L 572.5 564 L 572.5 563 Z "/><path fill="rgb(2,153,199)" stroke="rgb(2,153,199)" stroke-width="0" opacity="0.2235294117647059" d="M 596.5 563 L 627 563.5 L 596.5 564 L 596.5 563 Z "/><path fill="rgb(2,153,199)" stroke="rgb(2,153,199)" stroke-width="0" opacity="0.2235294117647059" d="M 630.5 563 L 651 563.5 L 630.5 564 L 630.5 563 Z "/><path fill="rgb(2,153,199)" stroke="rgb(2,153,199)" stroke-width="0" opacity="0.2235294117647059" d="M 521.5 580 L 524 580.5 L 524 582.5 L 526.5 584 L 527.5 586 L 525.5 585 L 526.5 588 L 523 582 L 520 581.5 L 521.5 580 Z "/><path fill="rgb(2,153,199)" stroke="rgb(2,153,199)" stroke-width="0" opacity="0.2235294117647059" d="M 544.5 581 L 667.5 581 L 668 582.5 L 670 582.5 L 666.5 584 L 666.5 582 L 638.5 582 L 633.5 584 L 633.5 583 L 636 582.5 L 628.5 582 L 628.5 583 L 630 583.5 L 628.5 584 L 626.5 582 L 612.5 582 L 612.5 583 L 615 583.5 L 612.5 584 L 610 583.5 L 610.5 582 L 605.5 582 Q 606.5 584.8 602.5 584 L 600 583.5 L 600.5 582 L 595.5 583 L 589.5 582 L 587.5 582 L 585 582.5 L 587 583.5 L 584 584 L 583.5 582 L 569.5 582 L 569.5 584 L 567.5 582 L 558.5 582 L 556.5 582 L 544.5 582 L 544.5 581 Z "/><path fill="rgb(2,153,199)" stroke="rgb(2,153,199)" stroke-width="0" opacity="0.2235294117647059" d="M 521.5 583 L 522 588.5 L 521 591.5 L 521.5 593 L 520 589.5 L 521 586.5 L 521 584.5 L 521.5 583 Z "/><path fill="rgb(2,153,199)" stroke="rgb(2,153,199)" stroke-width="0" opacity="0.2235294117647059" d="M 540.5 604 L 547 609.5 L 548 611.5 L 540.5 604 Z "/><path fill="rgb(2,153,199)" stroke="rgb(2,153,199)" stroke-width="0" opacity="0.2235294117647059" d="M 576.5 611 L 579 612.5 L 579.5 616 L 576 614.5 L 577.5 612 L 576.5 611 Z "/><path fill="rgb(2,153,199)" stroke="rgb(2,153,199)" stroke-width="0" opacity="0.2235294117647059" d="M 772.5 614 L 773 616 L 775 616.5 Q 771.7 618.2 772.5 624 L 772 617.5 L 772 615.5 L 772.5 614 Z "/><path fill="rgb(2,153,199)" stroke="rgb(2,153,199)" stroke-width="0" opacity="0.2235294117647059" d="M 196.5 626 L 198 630.5 L 196.5 633 L 196 631 L 194 630.5 L 196.5 626 Z "/><path fill="rgb(2,153,199)" stroke="rgb(2,153,199)" stroke-width="0" opacity="0.2235294117647059" d="M 482.5 628 L 482.5 630 L 485 631.5 L 484.5 633 L 487 634.5 L 485.5 634 L 482 631.5 L 481.5 630 L 480 630.5 L 482.5 628 Z "/><path fill="rgb(2,153,199)" stroke="rgb(2,153,199)" stroke-width="0" opacity="0.2235294117647059" d="M 599.5 628 L 604.5 631 L 609.5 629 L 664 630.5 L 616.5 632 L 614.5 631 L 612.5 631 L 610.5 632 L 610 630 L 604.5 632 L 601.5 630 L 600 630.5 L 599.5 628 Z "/><path fill="rgb(2,153,199)" stroke="rgb(2,153,199)" stroke-width="0" opacity="0.2235294117647059" d="M 598.5 643 L 600 646.5 L 599.5 648 L 598.5 646 L 597 646.5 L 598.5 643 Z "/><path fill="rgb(2,153,199)" stroke="rgb(2,153,199)" stroke-width="0" opacity="0.2235294117647059" d="M 537.5 647 L 542 649.5 L 544 653.5 L 537.5 647 Z "/><path fill="rgb(2,153,199)" stroke="rgb(2,153,199)" stroke-width="0" opacity="0.2235294117647059" d="M 497.5 648 L 511.5 663 L 509.5 663 L 508 662.5 L 510 661.5 L 508 661 L 501.5 653 Q 499.8 655.7 498 651.5 L 497.5 649 L 496 649.5 L 497.5 648 Z "/><path fill="rgb(2,153,199)" stroke="rgb(2,153,199)" stroke-width="0" opacity="0.2235294117647059" d="M 642.5 679 Q 645.8 685.6 649 683.5 L 649.5 687 L 642.5 679 Z "/><path fill="rgb(2,153,199)" stroke="rgb(2,153,199)" stroke-width="0" opacity="0.2235294117647059" d="M 500.5 688 L 502.5 689 L 505.5 688 L 505.5 689 Q 496.4 690.4 493.5 698 L 501 689.5 L 500.5 688 Z "/><path fill="rgb(2,153,199)" stroke="rgb(2,153,199)" stroke-width="0" opacity="0.2235294117647059" d="M 343.5 694 L 349 697 L 347.5 700 L 346.5 697 L 343.5 694 Z "/><path fill="rgb(2,153,199)" stroke="rgb(2,153,199)" stroke-width="0" opacity="0.2235294117647059" d="M 772.5 697 L 774 703.5 L 772.5 706 L 772.5 697 Z "/><path fill="rgb(2,153,199)" stroke="rgb(2,153,199)" stroke-width="0" opacity="0.2235294117647059" d="M 517.5 709 L 520 709.5 L 519 711.5 L 519.5 713 L 516.5 712 L 515 712.5 L 518 710.5 L 517.5 709 Z "/><path fill="rgb(2,153,199)" stroke="rgb(2,153,199)" stroke-width="0" opacity="0.2235294117647059" d="M 676.5 714 L 677 715.5 L 676.5 717 L 679 718.5 Q 677.5 721.5 676 718.5 L 674 715.5 L 676 715.5 L 676.5 714 Z "/><path fill="rgb(2,153,199)" stroke="rgb(2,153,199)" stroke-width="0" opacity="0.2235294117647059" d="M 365 719 L 367 719.5 L 367.5 722 L 369 721.5 L 368.5 724 L 365 719 Z "/><path fill="rgb(2,153,199)" stroke="rgb(2,153,199)" stroke-width="0" opacity="0.2235294117647059" d="M 373.5 728 L 377 729.5 L 377.5 732 L 379.5 731 L 379.5 732 L 377.5 733 L 373.5 728 Z "/><path fill="rgb(2,153,199)" stroke="rgb(2,153,199)" stroke-width="0" opacity="0.2235294117647059" d="M 580 731 L 582 731.5 L 581.5 733 L 586 733.5 L 569.5 734 L 569.5 733 L 579.5 733 L 580 731 Z "/><path fill="rgb(2,153,199)" stroke="rgb(2,153,199)" stroke-width="0" opacity="0.2235294117647059" d="M 552.5 733 L 562 733.5 L 552.5 734 L 552.5 733 Z "/><path fill="rgb(2,153,199)" stroke="rgb(2,153,199)" stroke-width="0" opacity="0.2235294117647059" d="M 525.5 734 Q 529.2 736.2 524 738.5 L 523.5 740 L 523 738.5 L 525.5 734 Z "/><path fill="rgb(2,153,199)" stroke="rgb(2,153,199)" stroke-width="0" opacity="0.2235294117647059" d="M 616.5 738 L 622.5 745 L 620 744.5 L 619.5 742 L 616.5 744 L 618 741.5 L 616.5 738 Z "/><path fill="rgb(2,153,199)" stroke="rgb(2,153,199)" stroke-width="0" opacity="0.2235294117647059" d="M 772.5 743 L 775 743.5 L 772.5 749 L 772 745.5 L 772.5 743 Z "/><path fill="rgb(2,153,199)" stroke="rgb(2,153,199)" stroke-width="0" opacity="0.2235294117647059" d="M 607.5 745 L 611 747 L 612 752 L 610 750.5 L 611 749.5 L 607.5 745 Z "/><path fill="rgb(2,153,199)" stroke="rgb(2,153,199)" stroke-width="0" opacity="0.2235294117647059" d="M 624.5 746 L 635 756.5 L 633.5 758 Q 635.5 755 629.5 752 L 628 750.5 L 626 750.5 L 624.5 746 Z "/><path fill="rgb(2,153,199)" stroke="rgb(2,153,199)" stroke-width="0" opacity="0.2235294117647059" d="M 616.5 761 L 621 762.5 L 622.5 766 L 624 765.5 L 624.5 768 L 627 768.5 L 624.5 769 Q 621.3 762.4 618 764.5 L 618.5 763 L 616.5 764 L 616.5 761 Z "/><path fill="rgb(2,153,199)" stroke="rgb(2,153,199)" stroke-width="0" opacity="0.2235294117647059" d="M 277.5 769 L 294.5 787 L 277.5 770 L 276 770.5 L 277.5 769 Z "/><path fill="rgb(2,153,199)" stroke="rgb(2,153,199)" stroke-width="0" opacity="0.2235294117647059" d="M 626.5 771 L 631 776.5 L 629 775.5 L 626.5 771 Z "/><path fill="rgb(2,153,199)" stroke="rgb(2,153,199)" stroke-width="0" opacity="0.2235294117647059" d="M 718.5 773 L 719 784.5 L 718 784.5 L 717 782.5 L 718 776.5 L 718 774.5 L 718.5 773 Z "/><path fill="rgb(2,153,199)" stroke="rgb(2,153,199)" stroke-width="0" opacity="0.2235294117647059" d="M 697.5 778 L 698 796.5 L 697 796.5 L 697.5 778 Z "/><path fill="rgb(2,153,199)" stroke="rgb(2,153,199)" stroke-width="0" opacity="0.2235294117647059" d="M 504.5 783 L 509.5 785 L 511.5 785 L 517.5 784 L 520.5 785 L 522.5 784 L 527.5 785 L 529 785.5 L 504.5 786 L 504.5 783 Z "/><path fill="rgb(2,153,199)" stroke="rgb(2,153,199)" stroke-width="0" opacity="0.2235294117647059" d="M 657.5 792 L 658 793.5 L 657 795.5 L 659 795.5 L 657.5 799 L 656 794.5 L 657.5 792 Z "/><path fill="rgb(2,153,199)" stroke="rgb(2,153,199)" stroke-width="0" opacity="0.2235294117647059" d="M 338.5 821 L 341 821.5 L 340.5 823 L 342.5 822 L 341.5 824 L 339.5 823 L 337.5 824 L 338 822.5 L 338.5 821 Z "/><path fill="rgb(2,153,199)" stroke="rgb(2,153,199)" stroke-width="0" opacity="0.2235294117647059" d="M 656 866 L 658 866.5 L 657 869.5 L 656.5 874 L 656 869.5 L 656 866 Z "/></svg>